<?xml version="1.0" encoding="UTF-8"?>
<svg width="68px" height="68px" viewBox="0 0 68 68" version="1.1" xmlns="http://www.w3.org/2000/svg" xmlns:xlink="http://www.w3.org/1999/xlink">
    <title>Group 7</title>
    <g id="Page-1" stroke="none" stroke-width="1" fill="none" fill-rule="evenodd">
        <g id="Group-7" fill="#535E9F">
            <path d="M52.6166888,-1.81366828e-15 C57.9658012,-2.79628429e-15 59.9055187,0.556953667 61.8610742,1.60279622 C63.8166298,2.64863878 65.3513612,4.18337022 66.3972038,6.13892578 C67.4430463,8.09448133 68,10.0341988 68,15.3833112 L68,52.6166888 C68,57.9658012 67.4430463,59.9055187 66.3972038,61.8610742 C65.3513612,63.8166298 63.8166298,65.3513612 61.8610742,66.3972038 C59.9055187,67.4430463 57.9658012,68 52.6166888,68 L15.3833112,68 C10.0341988,68 8.09448133,67.4430463 6.13892578,66.3972038 C4.18337022,65.3513612 2.64863878,63.8166298 1.60279622,61.8610742 C0.556953667,59.9055187 -9.33469682e-16,57.9658012 -4.4560088e-15,52.6166888 L-1.81366828e-15,15.3833112 C-2.46874562e-15,10.0341988 0.556953667,8.09448133 1.60279622,6.13892578 C2.64863878,4.18337022 4.18337022,2.64863878 6.13892578,1.60279622 C8.09448133,0.556953667 10.0341988,-1.02026713e-15 15.3833112,-4.87034493e-15 L52.6166888,-1.81366828e-15 Z M24.7141722,44.88 L16.0858278,44.88 C14.7485497,44.88 14.2636203,45.0192384 13.7747314,45.2806991 C13.2858426,45.5421597 12.9021597,45.9258426 12.6406991,46.4147314 C12.3792384,46.9036203 12.24,47.3885497 12.24,48.7258278 L12.24,48.7258278 L12.24,51.9141722 C12.24,53.2514503 12.3792384,53.7363797 12.6406991,54.2252686 C12.9021597,54.7141574 13.2858426,55.0978403 13.7747314,55.3593009 C14.2636203,55.6207616 14.7485497,55.76 16.0858278,55.76 L16.0858278,55.76 L24.7141722,55.76 C26.0514503,55.76 26.5363797,55.6207616 27.0252686,55.3593009 C27.5141574,55.0978403 27.8978403,54.7141574 28.1593009,54.2252686 C28.4207616,53.7363797 28.56,53.2514503 28.56,51.9141722 L28.56,51.9141722 L28.56,48.7258278 C28.56,47.3885497 28.4207616,46.9036203 28.1593009,46.4147314 C27.8978403,45.9258426 27.5141574,45.5421597 27.0252686,45.2806991 C26.5363797,45.0192384 26.0514503,44.88 24.7141722,44.88 L24.7141722,44.88 Z M40.0240474,28.56 L17.0959526,28.56 C15.7265022,28.56 14.9921237,28.7493642 14.3272348,29.1049507 C13.6623459,29.4605372 13.1405372,29.9823459 12.7849507,30.6472348 C12.4293642,31.3121237 12.24,32.0465022 12.24,33.4159526 L12.24,33.4159526 L12.24,34.5840474 C12.24,35.9534978 12.4293642,36.6878763 12.7849507,37.3527652 C13.1405372,38.0176541 13.6623459,38.5394628 14.3272348,38.8950493 C14.9921237,39.2506358 15.7265022,39.44 17.0959526,39.44 L17.0959526,39.44 L40.0240474,39.44 C41.3934978,39.44 42.1278763,39.2506358 42.7927652,38.8950493 C43.4576541,38.5394628 43.9794628,38.0176541 44.3350493,37.3527652 C44.6906358,36.6878763 44.88,35.9534978 44.88,34.5840474 L44.88,34.5840474 L44.88,33.4159526 C44.88,32.0465022 44.6906358,31.3121237 44.3350493,30.6472348 C43.9794628,29.9823459 43.4576541,29.4605372 42.7927652,29.1049507 C42.1278763,28.7493642 41.3934978,28.56 40.0240474,28.56 L40.0240474,28.56 Z M40.0240474,31.28 C40.8911715,31.28 41.2216866,31.3492822 41.5100163,31.5034826 C41.700895,31.6055656 41.8344344,31.739105 41.9365174,31.9299837 C42.0907178,32.2183134 42.16,32.5488285 42.16,33.4159526 L42.16,33.4159526 L42.16,34.5840474 C42.16,35.4511715 42.0907178,35.7816866 41.9365174,36.0700163 C41.8344344,36.260895 41.700895,36.3944344 41.5100163,36.4965174 C41.2216866,36.6507178 40.8911715,36.72 40.0240474,36.72 L40.0240474,36.72 L17.0959526,36.72 C16.2288285,36.72 15.8983134,36.6507178 15.6099837,36.4965174 C15.419105,36.3944344 15.2855656,36.260895 15.1834826,36.0700163 C15.0292822,35.7816866 14.96,35.4511715 14.96,34.5840474 L14.96,34.5840474 L14.96,33.4159526 C14.96,32.5488285 15.0292822,32.2183134 15.1834826,31.9299837 C15.2855656,31.739105 15.419105,31.6055656 15.6099837,31.5034826 C15.8983134,31.3492822 16.2288285,31.28 17.0959526,31.28 L17.0959526,31.28 Z M50.9040474,12.24 L17.0959526,12.24 C15.7265022,12.24 14.9921237,12.4293642 14.3272348,12.7849507 C13.6623459,13.1405372 13.1405372,13.6623459 12.7849507,14.3272348 C12.4293642,14.9921237 12.24,15.7265022 12.24,17.0959526 L12.24,17.0959526 L12.24,18.2640474 C12.24,19.6334978 12.4293642,20.3678763 12.7849507,21.0327652 C13.1405372,21.6976541 13.6623459,22.2194628 14.3272348,22.5750493 C14.9921237,22.9306358 15.7265022,23.12 17.0959526,23.12 L17.0959526,23.12 L50.9040474,23.12 C52.2734978,23.12 53.0078763,22.9306358 53.6727652,22.5750493 C54.3376541,22.2194628 54.8594628,21.6976541 55.2150493,21.0327652 C55.5706358,20.3678763 55.76,19.6334978 55.76,18.2640474 L55.76,18.2640474 L55.76,17.0959526 C55.76,15.7265022 55.5706358,14.9921237 55.2150493,14.3272348 C54.8594628,13.6623459 54.3376541,13.1405372 53.6727652,12.7849507 C53.0078763,12.4293642 52.2734978,12.24 50.9040474,12.24 L50.9040474,12.24 Z M50.9040474,14.96 C51.7711715,14.96 52.1016866,15.0292822 52.3900163,15.1834826 C52.580895,15.2855656 52.7144344,15.419105 52.8165174,15.6099837 C52.9707178,15.8983134 53.04,16.2288285 53.04,17.0959526 L53.04,17.0959526 L53.04,18.2640474 C53.04,19.1311715 52.9707178,19.4616866 52.8165174,19.7500163 C52.7144344,19.940895 52.580895,20.0744344 52.3900163,20.1765174 C52.1016866,20.3307178 51.7711715,20.4 50.9040474,20.4 L50.9040474,20.4 L17.0959526,20.4 C16.2288285,20.4 15.8983134,20.3307178 15.6099837,20.1765174 C15.419105,20.0744344 15.2855656,19.940895 15.1834826,19.7500163 C15.0292822,19.4616866 14.96,19.1311715 14.96,18.2640474 L14.96,18.2640474 L14.96,17.0959526 C14.96,16.2288285 15.0292822,15.8983134 15.1834826,15.6099837 C15.2855656,15.419105 15.419105,15.2855656 15.6099837,15.1834826 C15.8983134,15.0292822 16.2288285,14.96 17.0959526,14.96 L17.0959526,14.96 Z" id="Combined-Shape"></path>
        </g>
    </g>
</svg>