<svg xmlns="http://www.w3.org/2000/svg" viewBox="0 0 27 28">
    <path fill-rule="evenodd" clip-rule="evenodd" d="M0.5 3C0.5 1.61929 1.61929 0.5 3 0.5H24C25.3807 0.5 26.5 1.61929 26.5 3V5C26.5 6.38071 25.3807 7.5 24 7.5H3C1.61929 7.5 0.5 6.38071 0.5 5V3ZM3 1.5C2.17157 1.5 1.5 2.17157 1.5 3V5C1.5 5.82843 2.17157 6.5 3 6.5H24C24.8284 6.5 25.5 5.82843 25.5 5V3C25.5 2.17157 24.8284 1.5 24 1.5H3ZM0.5 13C0.5 11.6193 1.61929 10.5 3 10.5H17C18.3807 10.5 19.5 11.6193 19.5 13V15C19.5 16.3807 18.3807 17.5 17 17.5H3C1.61929 17.5 0.5 16.3807 0.5 15V13ZM3 11.5C2.17157 11.5 1.5 12.1716 1.5 13V15C1.5 15.8284 2.17157 16.5 3 16.5H17C17.8284 16.5 18.5 15.8284 18.5 15V13C18.5 12.1716 17.8284 11.5 17 11.5H3ZM3 20.5C1.61929 20.5 0.5 21.6193 0.5 23V25C0.5 26.3807 1.61929 27.5 3 27.5H8C9.38071 27.5 10.5 26.3807 10.5 25V23C10.5 21.6193 9.38071 20.5 8 20.5H3ZM1.5 23C1.5 22.1716 2.17157 21.5 3 21.5H8C8.82843 21.5 9.5 22.1716 9.5 23V25C9.5 25.8284 8.82843 26.5 8 26.5H3C2.17157 26.5 1.5 25.8284 1.5 25V23Z" fill="currentColor"/>
</svg>